# xmcd CD database file
#
# Track frame offsets:
#	150
#	15596
#	32536
#	48043
#	66073
#	86419
#	104596
#	124415
#	147070
#	160915
#	178981
#	198984
#	218158
#	237864
#	253719
#	269010
#	297199
#
# Disc length: 4189 seconds
#
# Revision: 3
# Processed by: cddbd v1.5.2PL0 Copyright (c) Steve Scherf et al.
# Submitted via: CDex 1.60beta1-cs1
#
DISCID=f5105b11
DTITLE=No Doubt - The Singles 1992-2003
DYEAR=2003
DGENRE=Ska-Core
TTITLE0=Just A Girl
TTITLE1=It's My Life
TTITLE2=Hey Baby Featuring Bounty Killer
TTITLE3=Bathwater
TTITLE4=Sunday Morning
TTITLE5=Hella Good
TTITLE6=New
TTITLE7=Underneath It All Featuring Lady Saw
TTITLE8=Excuse Me Mr.
TTITLE9=Running
TTITLE10=Spiderwebs
TTITLE11=Simple Kind Of Life
TTITLE12=Dont't Speak
TTITLE13=Ex Girlfriend
TTITLE14=Trapped In A Box
TTITLE15=Girls Get The Bass In The Back (Hey Baby Remix) Featuring Bounty Killer
TTITLE16=Underneath It All Live Acoustic Version
EXTD=YEAR: 2003
EXTT0=
EXTT1=
EXTT2=
EXTT3=
EXTT4=
EXTT5=
EXTT6=
EXTT7=
EXTT8=
EXTT9=
EXTT10=
EXTT11=
EXTT12=
EXTT13=
EXTT14=
EXTT15=
EXTT16=
PLAYORDER=
